<?xml version="1.0" encoding="UTF-8" standalone="no"?>
<!-- Created with Inkscape (http://www.inkscape.org/) -->

<svg
   xmlns:dc="http://purl.org/dc/elements/1.1/"
   xmlns:cc="http://creativecommons.org/ns#"
   xmlns:rdf="http://www.w3.org/1999/02/22-rdf-syntax-ns#"
   xmlns:svg="http://www.w3.org/2000/svg"
   xmlns="http://www.w3.org/2000/svg"
   xmlns:sodipodi="http://sodipodi.sourceforge.net/DTD/sodipodi-0.dtd"
   xmlns:inkscape="http://www.inkscape.org/namespaces/inkscape"
   version="1.1"
   id="svg815"
   width="1080"
   height="1080"
   viewBox="0 0 1080 1080"
   sodipodi:docname="logo1-min.svg"
   inkscape:version="0.92.2 (5c3e80d, 2017-08-06)"
   inkscape:export-filename="D:\projects\hexo-blog\source\img\logo1-min.png"
   inkscape:export-xdpi="35.915302"
   inkscape:export-ydpi="35.915302">
  <metadata
     id="metadata821">
    <rdf:RDF>
      <cc:Work
         rdf:about="">
        <dc:format>image/svg+xml</dc:format>
        <dc:type
           rdf:resource="http://purl.org/dc/dcmitype/StillImage" />
      </cc:Work>
    </rdf:RDF>
  </metadata>
  <defs
     id="defs819" />
  <sodipodi:namedview
     pagecolor="#ffffff"
     bordercolor="#666666"
     borderopacity="1"
     objecttolerance="10"
     gridtolerance="10"
     guidetolerance="10"
     inkscape:pageopacity="0"
     inkscape:pageshadow="2"
     inkscape:window-width="1920"
     inkscape:window-height="1017"
     id="namedview817"
     showgrid="false"
     inkscape:zoom="0.39259259"
     inkscape:cx="-364.2453"
     inkscape:cy="584.24655"
     inkscape:window-x="-8"
     inkscape:window-y="-8"
     inkscape:window-maximized="1"
     inkscape:current-layer="svg815" />
  <g
     inkscape:groupmode="layer"
     id="layer1"
     inkscape:label="Layer 1" />
  <path
     style="fill:none;stroke:#000000;stroke-width:11.33858299;stroke-linecap:butt;stroke-linejoin:miter;stroke-miterlimit:4;stroke-dasharray:none;stroke-opacity:1"
     d="m 329.85847,128.63208 -3.8207,33.1132 -8.9151,33.11321 -6.3679,26.74528 -3.8208,29.29246 -5.0943,19.10377 12.7358,38.20755 35.6604,53.49056 25.4717,19.10378 30.566,36.93396 36.934,33.11321 42.0283,17.83019 36.9339,10.18867 39.48117,8.9151 21.65095,-7.64151 42.0283,-25.4717 26.74528,-20.37736 20.37736,-21.65094 22.92453,-25.4717 15.28302,-20.37736 6.36792,-16.5566 7.64151,-40.75472 5.09434,-31.83962 3.82076,-33.11321 3.82075,-29.29245 1.27359,-30.56604 V 173.20755 L 722.12264,137.54717 706.83962,110.80189 692.83019,91.698113 660.99057,71.320755 648.25472,66.226415 622.78302,54.764151 h -16.5566 l -21.65095,-2.54717 -8.91509,2.54717 -10.18868,1.273585 -12.73585,-7.641509 -16.55658,-7.64151 -17.8302,-3.820755 -26.7453,-3.820754 -22.9245,5.094339 -24.1981,3.820755 -14.0095,7.64151 -14.0094,12.735849 -8.9151,10.188679 -2.5472,15.283019 -10.1886,11.462264 -12.7359,3.820757 h -15.283 l -15.283,1.27358 -10.1887,6.36793 -12.7359,8.91509 z"
     id="path826"
     inkscape:connector-curvature="0" />
  <path
     style="fill:none;stroke:#000000;stroke-width:11.33858299;stroke-linecap:butt;stroke-linejoin:miter;stroke-miterlimit:4;stroke-dasharray:none;stroke-opacity:1"
     d="m 7.6414652,587.12264 30.5660998,1.27359 21.6509,-3.82076 19.1038,-3.82075 30.566005,-6.36793 43.3019,-11.46226 44.5755,-12.73585 29.2924,-10.18868 21.651,-7.64151 31.8396,-8.91509 36.934,-6.36793 39.4811,-5.09434 28.0189,2.54717 34.3868,14.00944 35.6603,25.47169 15.2831,11.46227 11.4622,12.73585"
     id="path828"
     inkscape:connector-curvature="0" />
  <path
     style="fill:none;stroke:#000000;stroke-width:11.33858299;stroke-linecap:butt;stroke-linejoin:miter;stroke-miterlimit:4;stroke-dasharray:none;stroke-opacity:1"
     d="m 496.69807,476.32075 -17.8301,25.4717 -14.0095,24.19812 -6.3679,19.10377 -8.9151,25.4717 -8.9151,20.37736 -8.9151,33.1132 -5.0943,30.56604 -8.9151,39.48113 -8.9151,28.01887 -2.5472,31.83962 1.2736,38.20755 -1.2736,25.4717 -3.8207,56.03774 v 25.47169 l 6.3679,19.10378 -2.5472,43.30188 7.6415,45.849 7.6415,17.8302 14.0095,7.6415 12.7358,5.0943 12.7359,-2.5471 11.4622,-6.368 6.368,-5.0943 10.1886,-20.3773 v -14.00943 l -3.8207,-25.4717 2.5472,-14.00943 12.7358,-24.19811 2.5472,-12.73585 3.8207,-16.55661 v -11.46226 l 5.0944,-26.74528 -3.8208,-7.64151 v -14.00944 l -3.8207,-17.83019 6.3679,-20.37735 10.1887,-40.75472 8.9151,-34.38679 6.3679,-30.56604 12.73582,-45.84906 7.64151,-28.01887 v -34.38679 l -1.27358,-34.38679 -1.27359,-31.83962 -5.09434,-24.19812 -0.48699,-5.07316 13.22284,-1.29476 13.3437,0.3942 5.40336,11.25701 9.90617,14.40897 9.0056,14.85925 5.40337,13.05813 5.40336,10.35644 0.90056,12.60785 -3.15196,43.67718 -1.80112,21.61346 -2.70168,12.15756 -4.95309,11.25701 v 8.55533 l -2.70168,40.52522 6.75421,83.75213 0.45028,22.96429 1.35084,10.80673 -0.45028,11.257 -1.80112,27.91738 -1.80113,18.91177 -2.2514,37.37326 -1.35084,13.05813 v 16.21009 l 0.45028,13.05813 1.80112,8.55532 -3.15196,15.75981 0.90056,12.15757 -0.90056,6.30396 4.95309,10.8066 3.15196,13.9587 7.65476,4.5028 7.20449,3.152 24.76541,-12.1576 44.12747,-24.76534 3.60224,-6.7542 -1.80112,-18.91178 -0.45028,-7.20448 4.05252,-26.56653 5.40336,-25.2157 5.85365,-11.25701 2.70168,-18.91177 6.30392,-31.06934 3.15196,-32.87045 0.45028,-29.26822 v -15.75981 l 4.05252,-15.75981 v -11.70729 l 1.35085,-8.10504 -0.90056,-16.66037 -6.30393,-33.32074 -3.60224,-24.76541 -5.85364,-27.91738 -10.80673,-28.36766 -16.21009,-24.31513 -7.20448,-13.05813 -10.35645,-29.7185 -8.55532,-19.36205 -8.10505,-22.96429 -4.95308,-22.06373 -3.60224,-18.46149 -3.60225,-8.10505 2.2514,-14.40897 v -7.65476 l 4.50281,-3.60224 11.70728,1.35084 9.90617,2.2514 17.11065,8.55532 13.05813,15.30953 9.0056,20.26261 9.00561,19.81233 9.90616,21.16318 3.15197,12.15756 1.35084,10.35645 5.85364,25.2157 0.90056,29.26821 -0.90056,18.46149 v 16.21009 l 5.40336,24.76542 4.50281,24.76541 0.90056,32.42018 0.45028,20.26261 -2.25141,27.91738 -3.15196,22.51401 -3.15196,13.50841 -3.60224,22.96429 -4.95308,8.55533 0.45028,13.05812 v 16.66037 l -0.90056,12.15757 4.95308,10.80673 9.45588,19.36205 5.85365,9.0056 0.90056,10.35645 3.60224,5.40336 9.90617,2.70169 8.55532,-3.15197 6.30392,-4.5028 10.35645,-4.05252 5.85364,-12.60785 8.55533,-20.26261 1.35084,-30.61906 3.60224,-10.35644 -0.90056,-23.41458 -1.35084,-35.57214 -1.35084,-28.81794 -3.60224,-41.42578 -2.70168,-21.16317 -1.35084,-12.60785 -0.45028,-29.26822 -1.35085,-18.91177 -3.60224,-32.42018 -3.15196,-20.26261 0.45028,-10.80672 -2.2514,-28.81794 -6.30392,-20.71289 -6.30393,-10.80673 -1.80112,-11.70729 V 475.1191 l -2.2514,-10.35645 -19.36205,-22.96429 -15.30953,-20.71289 -9.45589,-7.20449 -7.20448,-9.0056 -10.80673,-9.45589 -11.257,-11.70729 -8.10505,-6.7542"
     id="path830"
     inkscape:connector-curvature="0" />
  <path
     style="fill:none;stroke:#000000;stroke-width:11.33858299;stroke-linecap:butt;stroke-linejoin:miter;stroke-miterlimit:4;stroke-dasharray:none;stroke-opacity:1"
     d="m 491.69277,427.38939 10.8068,8.10504 9.4558,5.85365 8.5554,4.5028 4.5028,1.35084 h 4.5028 l 7.2045,-4.05252 8.55527,-5.40337 14.40897,-7.20448 8.55533,-4.95308 9.0056,-8.55533 14.85925,-10.35644 9.45589,-6.30393 10.35644,-6.30392 4.95308,-3.15196"
     id="path832"
     inkscape:connector-curvature="0" />
  <path
     style="fill:none;stroke:#000000;stroke-width:11.33858299;stroke-linecap:butt;stroke-linejoin:miter;stroke-miterlimit:4;stroke-dasharray:none;stroke-opacity:1"
     d="m 756.50943,479.50472 19.74057,-1.27359 14.64623,-2.54717 14.64622,-5.09434 8.27831,-4.45754 10.18867,-4.45755 21.01416,-12.09906 31.20283,-18.46698 19.10377,-10.18868 11.46226,-5.09434 10.82548,-3.82075 18.46698,-1.91038 19.10377,-1.91038 17.1934,-1.27358 17.19339,-3.18397 25.47173,-5.73113 22.2877,-6.36792 21.0141,-7.64151 12.7359,-3.82076 h 2.5472"
     id="path834"
     inkscape:connector-curvature="0" />
  <path
     style="fill:none;stroke:#000000;stroke-width:11.33858299;stroke-linecap:butt;stroke-linejoin:miter;stroke-miterlimit:4;stroke-dasharray:none;stroke-opacity:1"
     d="m 1072.3585,294.19811 -17.1934,26.74529 -12.7359,16.5566 -14.6462,20.37736 -22.9245,26.74528 -8.27831,12.09906 -14.64623,17.19339 -8.2783,8.9151 -5.73113,10.18868 -11.46226,8.91509 -39.48114,51.58019 -17.19339,26.74528 -19.10378,28.01887 -15.28302,22.92453 -18.46698,37.57075 -18.46698,41.39151 -11.46226,26.10849 -10.82547,24.19812 -5.73114,17.83019 -10.18868,38.20754 -3.18396,14.00944 -7.00471,19.10377 -5.09434,23.56132 -4.45755,39.48113 -4.45755,49.03302 v 41.39151 l 3.18396,22.92453 5.09434,28.01887 7.64151,28.01878 8.2783,26.7453 4.45755,14.0094 7.00472,10.1887 3.82075,7.6415"
     id="path836"
     inkscape:connector-curvature="0" />
  <path
     style="fill:none;stroke:#000000;stroke-width:11.33858299;stroke-linecap:butt;stroke-linejoin:miter;stroke-miterlimit:4;stroke-dasharray:none;stroke-opacity:1"
     d="m 720.88544,756.54426 45.02803,14.40897 21.162,-0.43436 25.66715,13.04221 18.01121,10.80672 25.21569,18.01121 39.62467,25.2157 27.01681,21.61345 28.81794,16.21009 34.2213,21.61345 32.42016,30.61906"
     id="path838"
     inkscape:connector-curvature="0" />
  <path
     style="fill:none;stroke:#000000;stroke-width:11.33858299;stroke-linecap:butt;stroke-linejoin:miter;stroke-miterlimit:4;stroke-dasharray:none;stroke-opacity:1"
     d="m 365.16407,197.29617 2.2514,7.20449 v 4.5028 l -2.7017,3.15196 -1.8011,8.10505 v 3.60224 l -4.5028,9.90617 -5.4034,9.90616 -3.6022,9.45589 -0.4503,4.05252 2.7017,15.75981 3.1519,16.21009 1.8011,6.7542 2.2514,15.30953 13.0582,-2.2514 10.3564,-5.85364 8.5553,-6.75421 h 9.4559 l 10.3565,-3.60224 11.257,-0.90056 4.0525,-3.15196 2.2514,-27.91738 v -6.30392 l -1.8011,-4.5028 -9.9062,-16.66037 -6.3039,-5.40337 -4.0525,-4.05252 -13.0582,-7.65476 -13.5084,-5.40337 -2.7016,-1.35084 -9.4559,-4.05252"
     id="path840"
     inkscape:connector-curvature="0" />
  <path
     style="fill:none;stroke:#000000;stroke-width:11.33858299;stroke-linecap:butt;stroke-linejoin:miter;stroke-miterlimit:4;stroke-dasharray:none;stroke-opacity:1"
     d="m 584.90081,230.16663 4.05252,-9.90616 v -2.70168 l 4.05252,-4.50281 2.70168,-4.05252 5.40337,-9.0056 1.35084,-4.05253 1.35084,-7.20448 9.90616,-7.65476 6.30393,-4.50281 13.95868,-3.15196 7.65477,1.35084 7.65476,1.35084 13.05813,5.40337 9.90617,9.45588 4.95308,9.00561 3.15196,9.90616 0.45028,9.90617 0.45028,4.5028 -1.35084,13.95869 v 4.95308 l -4.5028,5.40336 -3.15196,2.70169 -23.41458,11.257 -12.15756,5.40337 -4.50281,1.80112 -4.5028,-0.45028 -9.45588,-5.85365 -9.90617,-8.55532 -6.7542,-7.20449 -7.65477,-5.85364 -6.30392,-6.30392 -4.95309,-2.70168 z"
     id="path842"
     inkscape:connector-curvature="0" />
</svg>
